<?xml version="1.0" encoding="utf-8"?>
<!-- Generator: Adobe Illustrator 26.0.0, SVG Export Plug-In . SVG Version: 6.00 Build 0)  -->
<svg version="1.1" id="Layer_1" xmlns="http://www.w3.org/2000/svg" xmlns:xlink="http://www.w3.org/1999/xlink" x="0px" y="0px"
	 viewBox="0 0 800 800" style="enable-background:new 0 0 800 800;" xml:space="preserve">
<style type="text/css">
	.st0{fill:#FFFFFF;}
</style>
<g>
	<polygon class="st0" points="346.7,477 477.7,400.1 346.7,323.2 	"/>
	<path class="st0" d="M737.5,0h-675C28,0,0,28,0,62.5v675C0,772,28,800,62.5,800h675c34.5,0,62.5-28,62.5-62.5v-675
		C800,28,772,0,737.5,0z M600,471.5c0,68.9-68.9,68.9-68.9,68.9H268.9c-68.9,0-68.9-68.9-68.9-68.9v-143c0-68.9,68.9-68.9,68.9-68.9
		h262.2c68.9,0,68.9,68.9,68.9,68.9V471.5z"/>
</g>
</svg>
