<?xml version="1.0" encoding="utf-8"?>
<!-- Generator: Adobe Illustrator 26.0.0, SVG Export Plug-In . SVG Version: 6.00 Build 0)  -->
<svg version="1.1" id="Layer_1" xmlns="http://www.w3.org/2000/svg" xmlns:xlink="http://www.w3.org/1999/xlink" x="0px" y="0px"
	 viewBox="0 0 688 800" style="enable-background:new 0 0 688 800;" xml:space="preserve">
<style type="text/css">
	.st0{display:none;}
	.st1{display:inline;fill:#BCADAD;}
	.st2{fill:#FFFFFF;}
</style>
<g id="Layer_2_00000075155396858647278670000002121140756599045309_" class="st0">
	<rect x="-56" class="st1" width="800" height="800"/>
</g>
<g id="Layer_1_00000166659745361650056960000016974182963416305542_">
	<g>
		<path class="st2" d="M455.5,129.9c-28.3,36.1-76.7,64-123.4,62.5C323.9,146,346,98.1,372.3,66c29.5-35.6,79.5-62.8,122.3-66
			C501.6,48.6,481.6,96,455.5,129.9z"/>
		<path class="st2" d="M688,587.1c-19.1,41.2-28.3,60-52.3,96.9c-33.9,51.2-81.2,115.5-140.4,116c-52.5,0.5-66-34-136.9-33.9
			c-71.1,0.4-86,34.4-138.5,33.9c-59-0.5-104.1-58.4-137.7-109.7C-12.2,546.4-22.2,378,36.3,288.5C77.5,224.6,143,187.4,204.6,187.4
			c62.5,0,101.6,34.4,153.4,34.4c50,0,80.5-34.4,152.8-34.4c54.6,0,112.5,29.7,153.9,81.2C529.5,342.7,551.5,535.6,688,587.1z"/>
	</g>
</g>
</svg>
