<?xml version="1.0" encoding="utf-8"?>
<!-- Generator: Adobe Illustrator 26.0.0, SVG Export Plug-In . SVG Version: 6.00 Build 0)  -->
<svg version="1.1" id="Layer_1" xmlns="http://www.w3.org/2000/svg" xmlns:xlink="http://www.w3.org/1999/xlink" x="0px" y="0px"
	 viewBox="0 0 800 800" style="enable-background:new 0 0 800 800;" xml:space="preserve">
<style type="text/css">
	.st0{fill-rule:evenodd;clip-rule:evenodd;fill:url(#XMLID_00000039111259982886961390000014592686553135355796_);}
	.st1{fill:#FFFFFF;}
</style>
<g id="XMLID_632_">
	
		<linearGradient id="XMLID_00000016052903674786415000000015109348922642599320_" gradientUnits="userSpaceOnUse" x1="400" y1="800" x2="400" y2="0" gradientTransform="matrix(1 0 0 -1 0 800)">
		<stop  offset="0" style="stop-color:#F452FF"/>
		<stop  offset="1" style="stop-color:#832BC1"/>
	</linearGradient>
	
		<path id="XMLID_662_" style="fill-rule:evenodd;clip-rule:evenodd;fill:url(#XMLID_00000016052903674786415000000015109348922642599320_);" d="
		M784.3,693.3c-7.7,19.7-25.6,47.5-51.2,67.2c-14.7,11.2-32.3,22.1-56.3,29.3c-25.6,7.7-57.3,10.1-96.8,10.1H220
		c-39.5,0-70.9-2.7-96.8-10.1c-24-7.2-41.6-17.9-56.3-29.3c-25.3-19.5-43.5-47.5-51.2-67.2C0.3,653.6,0,608.5,0,580l0,0V220l0,0
		c0-28.5,0.3-73.6,15.7-113.3c7.7-19.7,25.6-47.5,51.2-67.2c14.7-11.2,32.3-22.1,56.3-29.3C149.1,2.7,180.5,0,220,0l0,0h360l0,0
		c39.5,0,70.9,2.7,96.8,10.1c24,7.2,41.6,17.9,56.3,29.3c25.3,19.5,43.5,47.5,51.2,67.2C800,146.4,800,191.7,800,220v360
		C800,608.5,799.7,653.6,784.3,693.3z"/>
	<g>
		<path id="XMLID_657_" class="st1" d="M468.5,482.9c-1.1-9.6-4.3-16.5-10.7-22.9c-12-12.5-33.1-20.8-57.9-20.8s-45.9,8-57.9,20.8
			c-6.1,6.7-9.6,13.3-10.7,22.9c-2.1,18.7-0.8,34.7,1.3,60.5c2.1,24.5,6.1,57.3,11.2,90.4c3.7,23.7,6.7,36.5,9.3,45.6
			c4.5,14.9,20.8,27.7,46.7,27.7s42.4-13.1,46.7-27.7c2.7-9.1,5.6-21.9,9.3-45.6c5.1-33.3,9.1-65.9,11.2-90.4
			C469.6,517.6,470.7,501.6,468.5,482.9z"/>
		<path id="XMLID_655_" class="st1" d="M465.6,346.9c0,36.3-29.3,65.6-65.6,65.6s-65.6-29.3-65.6-65.6s29.3-65.6,65.6-65.6
			S465.6,310.9,465.6,346.9z"/>
		<path id="XMLID_653_" class="st1" d="M399.2,88.5c-153.1,0.5-278.4,124.8-280.5,277.9c-1.6,124,77.6,230.1,188.3,269.1
			c2.7,1.1,5.3-1.3,5.1-4c-1.3-9.6-2.9-19.2-4-28.8c-0.5-3.5-2.7-6.1-5.6-7.7c-87.5-38.1-148.5-125.9-147.5-227.5
			c1.3-133.3,110.1-241.9,243.2-242.9c136.3-1.1,247.5,109.3,247.5,245.3c0,100.5-60.8,186.9-147.5,225.1c-3.2,1.3-5.3,4.3-5.6,7.7
			c-1.3,9.6-2.7,19.2-4,28.8c-0.5,2.9,2.4,5.1,5.1,4c109.6-38.4,188.3-142.9,188.3-265.6C681.3,214.7,554.7,88.3,399.2,88.5z"/>
		<path id="XMLID_651_" class="st1" d="M392.8,181.9c-99.7,3.7-179.7,86.1-181.1,185.9c-0.8,65.6,32,123.7,82.4,158.1
			c2.4,1.6,5.9-0.3,5.9-3.2c-0.8-11.5-0.8-21.6-0.3-32.3c0.3-3.5-1.1-6.7-3.7-9.1c-30.7-28.8-49.3-69.9-48.3-115.2
			c2.1-80,66.4-145.1,146.4-148.3c86.9-3.5,158.4,66.4,158.4,152.3c0,43.7-18.7,83.2-48.3,111.2c-2.4,2.4-3.7,5.6-3.7,9.1
			c0.5,10.4,0.3,20.5-0.3,32c-0.3,2.9,3.2,5.1,5.9,3.2c49.6-33.9,82.4-91.2,82.4-155.7C588.8,263.7,500,177.6,392.8,181.9z"/>
	</g>
</g>
</svg>
