<?xml version="1.0" encoding="utf-8"?>
<!-- Generator: Adobe Illustrator 26.0.0, SVG Export Plug-In . SVG Version: 6.00 Build 0)  -->
<svg version="1.1" id="Layer_1" xmlns="http://www.w3.org/2000/svg" xmlns:xlink="http://www.w3.org/1999/xlink" x="0px" y="0px"
	 viewBox="0 0 800 800" style="enable-background:new 0 0 800 800;" xml:space="preserve">
<style type="text/css">
	.st0{fill:#04ABE3;}
	.st1{fill:#FFFFFF;}
</style>
<path class="st0" d="M89.7,352.5c-85.3-201.8,204.1-237,250.1-152.3c0,0,27.2-151.3,227.1-62.3c21.2,9.4,30.5,31,33.5,54.7
	c0.1,0,0.2,0,0.3-0.1c80.9-15.8,160.8,40.8,178,101.9c11.2,39.7-7,71.8-48,86.9c31.5,12.6,54.5,36.7,64.4,68
	c13,41.4-0.2,87.4-33.5,117.2c-21.9,19.6-71.5,52.8-116.1,53.8c-62.2,1.3-154-27.2-168.5-32c-14.9,68.7-70.2,82-126.6,93
	c-51.8,10.1-126-10.8-159.6-35.6c-20.3-14.9-43-42.2-40.7-89.1C148,557.3,27.8,569.1,2,471.4C-9.3,428.3,28,373.3,89.7,352.5z"/>
<g>
	<g>
		<path class="st1" d="M137,285.3l58-9.8l2.4-0.2c3.4-0.2,5.5,0.2,6.2,1.4c0.8,1.2,1.3,2.8,1.7,4.8c0,0.2,0,0.5,0,0.7
			c0.4,12,0.7,23.8,1.1,35.4c0.4,11.8,0.6,23.6,0.7,35.5c2.3-3.1,4.5-6.1,6.5-9c12.7-17.7,25.3-35.3,38-52.8
			c2.3-2.9,4.9-4.4,7.9-4.6c3.4-0.2,6.4,0.7,9.1,2.8l9.9,9.6c2.2,2.4,3.4,4.9,3.6,7.6c0.2,2.5-0.6,4.9-2.2,7.3l-38.7,52.9
			c-1.6,2.6-2.4,5.3-2.2,8c0.1,1.8,0.7,3.5,1.7,5l72,107c1.3,1.7,2,3.6,2.1,5.7c0.1,1.4-0.1,2.6-0.4,3.8c-1.1,3.3-3.2,5.7-6.3,7.3
			l-41.4,17.9c-1.3,0.6-2.6,0.9-3.7,0.9c-4.5,0.3-8.2-1.7-11-6.1c-7.1-14.3-14.3-28.6-21.4-42.9c-7.1-14.1-14.3-28.4-21.4-42.9
			l2.2,81.5c0,3.2-1,5.8-2.9,7.9c-1.9,2.1-4.3,3.2-7.3,3.4l-0.7,0l-30.3,1.4c-3,0.2-5.6-0.6-7.9-2.5c-2.3-1.9-3.7-4.4-4.1-7.6
			l-17.4-177.4l-2.7,0.2c-3.9,0.3-6.4-2.3-7.7-7.7l-2.6-32.3l0-0.7c-0.2-2.7,0.6-5.2,2.4-7.3C132.1,287.4,134.3,286,137,285.3z"/>
	</g>
</g>
<g>
	<g>
		<path class="st1" d="M333.9,265.8c9.7-0.7,18.2,2.2,25.6,8.7c7.4,6.4,11.4,14.5,12.1,24.2c0.7,9.9-2.2,18.5-8.6,25.8
			c-6.5,7.3-14.5,11.3-24.2,12c-9.7,0.7-18.2-2.2-25.6-8.5c-7.4-6.3-11.4-14.5-12.1-24.3c-0.7-9.7,2.2-18.2,8.7-25.6
			C316.2,270.6,324.3,266.5,333.9,265.8z M315,353.6l45.3-4.3l0.9-0.1c2.6-0.2,4.8,0.7,6.7,2.5c1.9,1.9,3,4,3.1,6.3l0.1,0.9
			l-0.2,161c-0.2,2.6-1.2,4.9-2.8,6.8c-1.7,1.9-3.8,2.9-6.3,3.1c-0.2,0-0.5-0.1-0.9-0.2l-26.8,0.1c-2.8,0-5.1-0.8-6.9-2.5
			c-1.8-1.7-2.8-3.9-3-6.6L316,398.8l-3.6,0.2c-1.2-0.1-2.3-0.5-3.2-1.3c-0.9-0.7-1.6-2.1-1.9-4l-1.2-30c-0.2-2.4,0.6-4.6,2.4-6.6
			C310.3,355.2,312.4,354,315,353.6z"/>
	</g>
</g>
<g>
	<g>
		<path class="st1" d="M386.5,334.8l-2.1-56c0-3,1-5.8,3-8.1c2.1-2.4,4.7-3.7,7.9-4c7.3-0.8,14.3-1.2,21-1.3
			c29.7-0.3,53.9,5.1,72.6,16.4c18.8,11.3,32.7,26,41.7,44.2c9,18.2,13.7,37.5,13.9,57.9c0.3,22.5-4.4,44.5-14,65.8
			c-9.6,21.4-23.5,39-41.7,52.9c-18.2,13.9-40.1,21-65.6,21.3c-2,0-3.9-0.1-5.9-0.3c-3.2-0.2-5.9-1.3-8.1-3.4
			c-2.2-2.1-3.5-4.7-3.8-7.7l-9.7-178L386.5,334.8z M455.4,374.1l0.9,75.7c0,2.8,0.3,5.7,0.8,8.6c0.5,2.9,1.8,4.7,3.7,5.4
			c1.2,0.5,2.5,0.7,3.7,0.7c7.4-0.1,12.9-5.9,16.5-17.4c3.7-11.5,5.4-24.1,5.3-37.7c-0.2-13.4-2.1-25.4-5.9-36.2
			c-3.8-10.7-9.3-16.1-16.4-16c-1.2,0-2.6,0.2-4,0.4c-2,1-3.2,3.2-3.8,6.7C455.6,367.8,455.3,371.1,455.4,374.1z"/>
	</g>
</g>
<g>
	<g>
		<path class="st1" d="M613.3,253.8c2.5-0.3,5.1-0.4,7.9-0.4c19.5-0.2,37.3,7,53.5,21.7c16.9,17,26.6,38.4,28.9,64
			c0.2,2.4,0.4,4.9,0.4,7.5c0.1,9.1-0.7,18.1-2.3,27.1c-1.6,9-3.6,18.1-6.1,27.2c-0.9,3.4-2.8,5.8-5.8,7.3c-1.6,1-3.3,1.5-5.1,1.5
			c-1.4,0-2.6-0.2-3.8-0.7c-15.4-5.1-30.7-10.3-45.9-15.6c-3.9-1.1-7.8-2.4-11.7-3.8c-3.2-0.9-5.5-2.9-6.9-6c-0.7-1.7-1.1-3.3-1.1-5
			c0-1.4,0.2-2.9,0.6-4.3c4.2-10.3,6.3-18.9,6.2-25.6c0-3.1-0.8-5.6-2.1-7.5c-2.6-2.4-5.9-3.5-10-3.5c-4.1,0-8.4,1.1-12.9,3
			c-4.4,2-8.1,4.8-11.1,8.4c-3.8,5.1-5.7,10.7-5.7,16.9c0.1,7.9,3.4,15.4,9.9,22.5c9.3,7.8,21.1,14.1,35.6,19
			c5.1,1.9,9.9,3.8,14.5,5.9c17.7,7,30.1,17,37.1,30.1c3.1,6.4,4.6,13.1,4.7,20.1c0.1,8.1-2,15.8-6.3,23.1
			c-8.3,12.8-21.3,20.7-38.9,23.8c-4.6,0.8-9.2,1.2-13.7,1.2c-11.9,0.1-23.1-2.3-33.4-7.2c-12.7-7.5-20.8-17.7-24.4-30.6
			c-1.9-8.4-2.9-16.9-3-25.5c0-4.1,1.3-7.2,4-9.4c2.3-1.7,4.6-2.6,6.8-2.6c0.9,0,1.8,0.1,2.8,0.3c5.7,1.1,11.4,2.4,16.9,3.8
			c2.8,0.5,4.9,1.8,6.6,4.1c1.6,2.3,2.5,4.7,2.5,7.3c0,0.7-0.1,1.4-0.3,2.2c-0.2,1.4-0.3,2.9-0.3,4.3c0.5,3.1,1.7,6.2,3.5,9.1
			c1.9,3,4.4,5.3,7.6,6.9c2.1,0.9,4.4,1.4,6.9,1.4c4.6-0.1,8.7-2.3,12.3-6.6c2.7-3.4,4-7.2,4-11.5c-0.1-5.3-2.9-10.3-8.4-15
			c-5.1-3.3-11.9-6.3-20.4-9.1c-10.4-3.2-20-7.8-29-13.7c-15-11.8-23.9-29.9-26.7-54.3c-1-7.2-1.5-14.5-1.6-21.9
			c-0.1-9.1,0.6-18.1,2.1-27.1c1.5-9,4.2-17.2,8-24.7C572.3,269.9,590.2,257.2,613.3,253.8z"/>
	</g>
</g>
</svg>
