<?xml version="1.0" encoding="utf-8"?>
<!-- Generator: Adobe Illustrator 26.0.0, SVG Export Plug-In . SVG Version: 6.00 Build 0)  -->
<svg version="1.1" id="Layer_1" xmlns="http://www.w3.org/2000/svg" xmlns:xlink="http://www.w3.org/1999/xlink" x="0px" y="0px"
	 viewBox="0 0 800 800" style="enable-background:new 0 0 800 800;" xml:space="preserve">
<style type="text/css">
	.st0{fill:#FFFFFF;}
</style>
<path class="st0" d="M737.5,0h-675C28,0,0,28,0,62.5v675C0,772,28,800,62.5,800h675c34.5,0,62.5-28,62.5-62.5v-675
	C800,28,772,0,737.5,0z M400.8,598c-33.4,0-66.2-8.4-95.5-24.3l-105.9,27.8L227.8,498c-55.1-95.6-22.3-217.7,73.3-272.7
	c30.3-17.5,64.7-26.7,99.7-26.7c53-0.1,103.9,21,141.3,58.6c37.5,37.4,58.6,88.2,58.4,141.2C600.3,508.5,511,597.8,400.8,598z"/>
<path class="st0" d="M498.5,469.6c-4.2,11.7-24.1,22.3-33.7,23.7c-10.5,1.8-21.3,1.1-31.4-2c-9.6-3-19.1-6.5-28.4-10.5
	c-50.1-21.6-82.7-72-85.3-75.3c-2.5-3.3-20.3-27.1-20.3-51.6c0-24.6,12.9-36.6,17.4-41.6c3.4-3.8,8.2-6.1,13.3-6.2
	c3.3,0,6.6,0,9.6,0.2c3.1,0.1,7.2-1.2,11.2,8.6c4.2,10,14.2,34.5,15.4,37s2.1,5.4,0.4,8.7c-1.7,3.4-2.5,5.4-5,8.3
	c-2.5,2.9-5.2,6.5-7.5,8.8c-2.5,2.5-5.1,5.2-2.2,10.2s12.9,21.3,27.7,34.6c19.1,17,35.2,22.2,40.1,24.8c5,2.5,7.9,2.1,10.8-1.3
	c2.9-3.4,12.5-14.6,15.8-19.5c3.3-5,6.6-4.2,11.2-2.5c4.6,1.7,29.1,13.7,34.1,16.2c4.9,2.5,8.3,3.7,9.6,5.8
	C502.7,447.9,502.7,457.9,498.5,469.6z"/>
</svg>
