<?xml version="1.0" encoding="utf-8"?>
<!-- Generator: Adobe Illustrator 26.0.0, SVG Export Plug-In . SVG Version: 6.00 Build 0)  -->
<svg version="1.1" id="Layer_1" xmlns="http://www.w3.org/2000/svg" xmlns:xlink="http://www.w3.org/1999/xlink" x="0px" y="0px"
	 viewBox="0 0 800 800" style="enable-background:new 0 0 800 800;" xml:space="preserve">
<style type="text/css">
	.st0{fill:#FFFFFF;}
</style>
<path class="st0" d="M737.5,0h-675C28,0,0,28,0,62.5v675C0,772,28,800,62.5,800h675c34.5,0,62.5-28,62.5-62.5v-675
	C800,28,772,0,737.5,0z M414.1,189c14.7-17.8,39.7-31.4,61.1-33c3.6,24.4-6.4,48.1-19.5,65c-14.1,18.1-38.3,32-61.7,31.2
	C389.9,229,400.9,205.1,414.1,189z M545.9,498c-16.9,25.6-40.6,57.7-70.2,58c-26.2,0.3-33-17-68.4-16.9c-35.5,0.2-43,17.2-69.2,16.9
	c-29.5-0.3-52-29.2-68.9-54.8c-47.2-71.9-52.2-156.1-23-200.9c20.6-31.9,53.3-50.5,84.1-50.5c31.2,0,50.8,17.2,76.7,17.2
	c25,0,40.3-17.2,76.4-17.2c27.3,0,56.2,14.8,76.9,40.6c-67.5,37-56.6,133.4,11.7,159.2C562.4,470.2,557.9,479.6,545.9,498z"/>
</svg>
