<?xml version="1.0" encoding="utf-8"?>
<!-- Generator: Adobe Illustrator 22.0.1, SVG Export Plug-In . SVG Version: 6.00 Build 0)  -->
<svg version="1.1" id="Layer_1" xmlns="http://www.w3.org/2000/svg" xmlns:xlink="http://www.w3.org/1999/xlink" x="0px" y="0px"
	 viewBox="0 0 800 800" style="enable-background:new 0 0 800 800;" xml:space="preserve">
<style type="text/css">
	.st0{fill:#FFFFFF;}
</style>
<g>
	<path class="st0" d="M505.8,269.9c-13.2,0-23.8,10.7-23.8,23.9c0,13.2,10.7,23.8,23.9,23.8c13.2,0,23.8-10.7,23.8-23.9
		C529.7,280.5,519,269.9,505.8,269.9z"/>
	<path class="st0" d="M399.8,298c-56.3,0.1-101.9,45.9-101.8,102.2c0.1,56.4,45.9,101.9,102.2,101.8c56.3-0.1,102-45.9,101.8-102.2
		C501.9,343.5,456.1,297.9,399.8,298z M400.1,466.2c-36.6,0.1-66.3-29.5-66.4-66.1c-0.1-36.6,29.5-66.3,66.1-66.3
		c36.6-0.1,66.3,29.5,66.4,66.1C466.3,436.5,436.7,466.2,400.1,466.2z"/>
	<path class="st0" d="M737.5,0h-675C28,0,0,28,0,62.5v675C0,772,28,800,62.5,800h675c34.5,0,62.5-28,62.5-62.5v-675
		C800,28,772,0,737.5,0z M597.6,481.5c-0.9,21.1-4.2,35.6-9.1,48.2c-5.1,13.1-11.8,24.2-22.8,35.2c-11,11.1-22.1,17.9-35.2,23
		c-12.6,4.9-27.1,8.3-48.2,9.3c-21.2,1-28,1.2-81.9,1.3c-53.9,0.1-60.7-0.1-81.9-1c-21.1-0.9-35.6-4.3-48.2-9.1
		c-13.1-5.1-24.2-11.8-35.2-22.8c-11.1-11-17.9-22.1-23-35.2c-4.9-12.6-8.3-27.1-9.3-48.2c-1-21.2-1.2-28-1.4-81.9
		c-0.1-54,0.1-60.7,1-81.9c0.9-21.2,4.2-35.6,9.1-48.3c5.1-13.1,11.8-24.2,22.9-35.2c11-11.1,22.1-17.9,35.1-23
		c12.6-4.9,27.1-8.3,48.2-9.3c21.2-1,28-1.2,81.9-1.4c54-0.1,60.7,0.1,81.9,1c21.1,0.9,35.6,4.2,48.2,9.1
		c13.1,5,24.2,11.8,35.2,22.8c11.1,11,17.9,22.1,23,35.2c4.9,12.6,8.3,27.1,9.3,48.2c1,21.2,1.2,27.9,1.4,81.9
		C598.8,453.6,598.6,460.3,597.6,481.5z"/>
</g>
</svg>
