<?xml version="1.0" encoding="utf-8"?>
<!-- Generator: Adobe Illustrator 26.0.0, SVG Export Plug-In . SVG Version: 6.00 Build 0)  -->
<svg version="1.1" id="Layer_1" xmlns="http://www.w3.org/2000/svg" xmlns:xlink="http://www.w3.org/1999/xlink" x="0px" y="0px"
	 viewBox="0 0 800 800" style="enable-background:new 0 0 800 800;" xml:space="preserve">
<style type="text/css">
	.st0{fill:#FFFFFF;}
</style>
<path class="st0" d="M682.4,117.6C610.2,45.3,510.3,0.4,400,0C179.2,0,0,179.2,0,400s179.2,400,400,400s400-179.2,400-400
	C799.6,289.7,754.7,189.8,682.4,117.6z M584.4,578c-4.2,7.2-11.9,12.1-20.7,12.1c-5,0-9.7-1.4-13.5-4c-63.8-35.8-140.3-57-221.4-57
	c-45.7,0-90,6.6-131.7,19.1c-1.6,0.4-3.2,0.6-5,0.6c-13.7,0-24.8-11.1-24.8-24.8c0-11.5,7.9-21.1,18.5-24h0.2
	c42.1-12.5,90.6-19.7,140.7-19.7c90.8,0,175.9,23.6,249.8,65l-1.2-0.6c7.2,4.2,12.1,12.1,12.5,20.7
	C587.8,570.1,586.6,574.3,584.4,578z M635.9,460.6c-0.8,2.6-2,5.2-3.6,7.4c-5.4,8.9-15.1,14.7-26,14.7c-6,0-11.7-1.8-16.3-4.8h0.2
	c-73.1-41.9-160.6-66.4-253.9-66.4c-51.1,0-100.5,7.4-147.2,21.1c-2,0.4-4,0.6-6,0.6c-16.7,0-30.4-13.7-30.4-30.4
	c0-13.7,8.9-25.2,21.1-29h0.2c48.1-14.3,103.5-22.5,160.6-22.5c106.3,0,206.1,28.4,292.1,78.1l-2.8-1.4c7.9,5,13.1,13.9,13.3,24
	C637.3,455,636.9,457.8,635.9,460.6z M656.1,360.7c-7.2,0-14.1-1.8-19.9-5c-85.6-43.1-186.4-68.2-293.1-68.2
	c-60.8,0-119.6,8.3-175.5,23.6l4.6-1c-3.4,1-7.2,1.6-11.1,1.6c-20.1,0-36.6-16.3-36.6-36.6c0-16.5,10.7-30.2,25.4-35h0.2
	c141.9-42.1,376-34,524,54c11.5,6.8,18.9,19.3,18.9,33c0,6.8-1.8,13.3-4.8,18.9C680.4,354.9,668.9,360.7,656.1,360.7z"/>
</svg>
