<?xml version="1.0" encoding="utf-8"?>
<!-- Generator: Adobe Illustrator 26.0.0, SVG Export Plug-In . SVG Version: 6.00 Build 0)  -->
<svg version="1.1" id="Layer_1" xmlns="http://www.w3.org/2000/svg" xmlns:xlink="http://www.w3.org/1999/xlink" x="0px" y="0px"
	 viewBox="0 0 800 800" style="enable-background:new 0 0 800 800;" xml:space="preserve">
<style type="text/css">
	.st0{fill:#B3B3B3;}
	.st1{fill:#FFFFFF;}
	.st2{fill:none;}
	.st3{fill:url(#SVGID_1_);}
	.st4{fill-rule:evenodd;clip-rule:evenodd;fill:#FFFFFF;}
</style>
<g>
	<path class="st0" d="M224.8,675.6l12,7.1c50.3,29.9,108,45.6,166.8,45.7h0.1c180.6,0,327.6-147,327.7-327.6
		c0-87.5-34-169.9-95.9-231.8c-61.3-61.7-144.7-96.3-231.7-96.1C223,72.9,76,219.9,76,400.5c-0.1,61.7,17.3,122.1,50.1,174.4
		l7.8,12.4l-33.1,120.9L224.8,675.6z M6.1,801.8L62,597.5C27.5,537.8,9.4,470,9.4,400.5C9.5,183.1,186.3,6.3,403.7,6.3
		c105.5,0.1,204.5,41.1,278.9,115.6S798,295.5,798,400.8C797.9,618.1,621,795,403.7,795h-0.2c-66,0-130.8-16.6-188.4-48L6.1,801.8z"
		/>
	<path class="st1" d="M2,797.7L58,593.5C23.4,533.6,5.3,465.6,5.3,396.4C5.4,179.1,182.3,2.3,399.6,2.3
		c105.5,0.1,204.5,41.1,278.9,115.6S794,291.4,793.9,396.7c-0.1,217.3-177,394.2-394.3,394.2h-0.2c-66,0-130.8-16.6-188.4-48
		L2,797.7z"/>
	<path class="st2" d="M399.8,68.9C219,68.9,72,215.8,71.9,396.5c-0.1,61.7,17.3,122.1,50.1,174.4l7.8,12.4L96.7,704.1l124-32.5
		l12,7.1c50.3,29.9,108,45.6,166.8,45.7h0.1c180.6,0,327.6-147,327.7-327.6c0.3-87-34.3-170.4-95.9-231.8
		C570.1,103.3,486.7,68.7,399.8,68.9L399.8,68.9z"/>
	
		<linearGradient id="SVGID_1_" gradientUnits="userSpaceOnUse" x1="397.9164" y1="691.8271" x2="401.2389" y2="131.6885" gradientTransform="matrix(1 0 0 -1 0 800)">
		<stop  offset="0" style="stop-color:#57D163"/>
		<stop  offset="1" style="stop-color:#23B33A"/>
	</linearGradient>
	<path class="st3" d="M399.8,68.9C219,68.9,72,215.8,71.9,396.5c-0.1,61.7,17.3,122.1,50.1,174.4l7.8,12.4L96.7,704.1l124-32.5
		l12,7.1c50.3,29.9,108,45.6,166.8,45.7h0.1c180.6,0,327.6-147,327.7-327.6c0.3-87-34.3-170.4-95.9-231.8
		C570.1,103.3,486.7,68.7,399.8,68.9z"/>
	<path class="st4" d="M301.1,231.6c-7.4-16.4-15.2-16.7-22.2-17l-18.9-0.2c-6.6,0-17.2,2.5-26.3,12.3c-9,9.9-34.5,33.7-34.5,82.2
		s35.3,95.3,40.2,101.9S307.7,520,407.8,559.5c83.2,32.8,100.2,26.3,118.2,24.7c18.1-1.6,58.3-23.8,66.5-46.8
		c8.2-23,8.2-42.7,5.8-46.8s-9-6.6-18.9-11.5s-58.3-28.8-67.3-32.1c-9-3.3-15.6-4.9-22.2,4.9s-25.4,32-31.2,38.6
		c-5.8,6.6-11.5,7.4-21.3,2.5c-9.9-4.9-41.6-15.3-79.2-48.9c-29.3-26.1-49.1-58.4-54.8-68.2c-5.8-9.9-0.6-15.2,4.3-20.1
		c4.4-4.4,9.8-11.5,14.8-17.3c4.9-5.8,6.6-9.9,9.8-16.4c3.3-6.6,1.6-12.3-0.8-17.3C329,299.9,309.8,251.1,301.1,231.6"/>
</g>
</svg>
