<?xml version="1.0" encoding="utf-8"?>
<!-- Generator: Adobe Illustrator 26.0.0, SVG Export Plug-In . SVG Version: 6.00 Build 0)  -->
<svg version="1.1" id="Layer_1" xmlns="http://www.w3.org/2000/svg" xmlns:xlink="http://www.w3.org/1999/xlink" x="0px" y="0px"
	 viewBox="0 0 800 800" style="enable-background:new 0 0 800 800;" xml:space="preserve">
<style type="text/css">
	.st0{fill:#FFFFFF;}
</style>
<g>
	<path class="st0" d="M486.4,471.5l1.3,0.7c-36.7-20.6-79-32.3-124.1-32.3c-24.9,0-49,3.6-69.9,9.8l-0.1,0
		c-5.3,1.4-9.2,6.2-9.2,11.9c0,6.8,5.5,12.3,12.3,12.3c0.9,0,1.7-0.1,2.5-0.3c20.7-6.2,42.7-9.5,65.4-9.5c40.3,0,78.3,10.5,110,28.3
		l0,0c1.9,1.3,4.2,2,6.7,2c4.4,0,8.2-2.4,10.3-6l0,0c0,0,0,0,0,0.1l0-0.1h0c1.1-1.8,1.7-3.9,1.7-6.2
		C493.1,477.6,490.4,473.5,486.4,471.5z"/>
	<path class="st0" d="M511.3,413.9l1.4,0.7c-42.7-24.7-92.3-38.8-145.1-38.8c-28.4,0-55.9,4.1-79.8,11.2l-0.1,0
		c-6.1,1.9-10.5,7.6-10.5,14.4c0,8.3,6.8,15.1,15.1,15.1c1,0,2-0.1,3-0.3c23.2-6.8,47.7-10.5,73.1-10.5c46.3,0,89.8,12.2,126.1,33
		l-0.1,0c2.3,1.5,5.1,2.4,8.1,2.4c5.4,0,10.2-2.9,12.9-7.3l0,0c1.6-2.3,2.5-5,2.5-8C517.8,420.8,515.2,416.4,511.3,413.9z"/>
	<path class="st0" d="M737.5,0h-675C28,0,0,28,0,62.5v675C0,772,28,800,62.5,800h675c34.5,0,62.5-28,62.5-62.5v-675
		C800,28,772,0,737.5,0z M400,598.7c-109.7,0-198.7-89-198.7-198.7s89-198.7,198.7-198.7h0h0c109.6,0.3,198.3,89.1,198.7,198.7
		C598.7,509.7,509.7,598.7,400,598.7z"/>
	<path class="st0" d="M296.7,415.9l-1.3,0.3C295.8,416.1,296.3,416,296.7,415.9z"/>
	<path class="st0" d="M536.1,347.3c-73.5-43.7-189.8-47.7-260.3-26.8l-0.1,0c-7.3,2.4-12.6,9.2-12.6,17.4c0,10.1,8.2,18.2,18.2,18.2
		c1.9,0,3.8-0.3,5.5-0.8l-2.3,0.5c27.8-7.6,57-11.7,87.2-11.7c53,0,103.1,12.5,145.6,33.9c0,0,0,0,0,0l0.1,0c0,0,0,0,0,0h0l0,0
		c0,0,0,0-0.1,0c2.9,1.6,6.3,2.5,9.9,2.5c6.4,0,12.1-2.9,15.9-7.4c1.5-2.8,2.4-6,2.4-9.4C545.5,356.9,541.8,350.7,536.1,347.3z"/>
</g>
</svg>
