<?xml version="1.0" encoding="utf-8"?>
<!-- Generator: Adobe Illustrator 26.0.0, SVG Export Plug-In . SVG Version: 6.00 Build 0)  -->
<svg version="1.1" id="Layer_1" xmlns="http://www.w3.org/2000/svg" xmlns:xlink="http://www.w3.org/1999/xlink" x="0px" y="0px"
	 viewBox="0 0 800 800" style="enable-background:new 0 0 800 800;" xml:space="preserve">
<style type="text/css">
	.st0{fill:#1ED760;}
</style>
<g>
	<path class="st0" d="M400,0C179.2,0,0,179.2,0,400s179.2,400,400,400s400-179.2,400-400S620.8,0,400,0z"/>
	<path d="M655.8,359.8c-8.4,0-13.5-2.1-20.8-6.3c-114.8-68.5-320.2-85-453.1-47.9c-5.8,1.6-13.1,4.2-20.8,4.2
		c-21.3,0-37.6-16.6-37.6-38.1c0-21.9,13.5-34.4,28.1-38.5c56.8-16.6,120.3-24.5,189.5-24.5c117.7,0,241.1,24.5,331.3,77.1
		c12.6,7.3,20.8,17.3,20.8,36.5C693.2,344.2,675.5,359.8,655.8,359.8L655.8,359.8z M605.8,482.7c-8.4,0-14-3.7-19.8-6.8
		c-100.8-59.7-251.1-83.7-384.8-47.4c-7.7,2.1-11.9,4.2-19.2,4.2c-17.3,0-31.3-14-31.3-31.3s8.4-28.7,25-33.4
		c44.8-12.6,90.6-21.9,157.7-21.9c104.7,0,205.8,26,285.5,73.4c13.1,7.7,18.2,17.7,18.2,31.8C636.9,468.7,623.4,482.7,605.8,482.7z
		 M562.4,588.5c-6.8,0-11-2.1-17.3-5.8c-100.6-60.6-217.7-63.2-333.4-39.5c-6.3,1.6-14.5,4.2-19.2,4.2c-15.6,0-25.5-12.4-25.5-25.5
		c0-16.6,9.8-24.5,21.9-27.1c132.1-29.2,267.1-26.6,382.3,42.3c9.8,6.3,15.6,11.9,15.6,26.6S575.5,588.5,562.4,588.5L562.4,588.5z"
		/>
</g>
</svg>
