<?xml version="1.0" encoding="utf-8"?>
<!-- Generator: Adobe Illustrator 26.0.0, SVG Export Plug-In . SVG Version: 6.00 Build 0)  -->
<svg version="1.1" id="Layer_1" xmlns="http://www.w3.org/2000/svg" xmlns:xlink="http://www.w3.org/1999/xlink" x="0px" y="0px"
	 viewBox="0 0 800 800" style="enable-background:new 0 0 800 800;" xml:space="preserve">
<style type="text/css">
	.st0{fill:#FFFFFF;}
</style>
<g>
	<path class="st0" d="M682.9,116.6C608.5,41.8,507.2-0.2,401.7,0C332,0,263.6,18.3,203.3,53.1C13,162.6-52.3,405.6,57.4,595.9
		l-56.5,206l210.8-55.3C270,778.2,335.3,795,401.8,795c219.3-0.4,397-178.1,397.4-397.2C799.5,292.2,757.5,191.1,682.9,116.6z
		 M634.9,630.9c-59.7,59.7-142.3,96.7-233.4,96.7c-59.1,0-117.2-15.7-168.2-46l-11.9-7.2l-125,32.8l33.4-121.8l-7.8-12.5
		c-33-52.5-50.6-113.4-50.6-175.7C71.7,214.7,219.6,67.1,401.9,66.9c87.8-0.2,172,34.6,233.4,96.9c62.1,61.9,96.9,145.9,96.5,233.6
		C731.7,488.8,694.6,571.2,634.9,630.9z"/>
	<path class="st0" d="M596.1,539.3c-8.4,23.3-48,44.4-67.1,47.2c-20.9,3.6-42.4,2.2-62.5-4c-19.1-6-38-12.9-56.5-20.9
		c-99.7-43-164.6-143.3-169.8-149.9c-5-6.6-40.4-53.9-40.4-102.7c0-49,25.7-72.8,34.6-82.8c6.8-7.6,16.3-12.1,26.5-12.3
		c6.6,0,13.1,0,19.1,0.4c6.2,0.2,14.3-2.4,22.3,17.1c8.4,19.9,28.3,68.7,30.6,73.6c2.4,5,4.2,10.7,0.8,17.3c-3.4,6.8-5,10.7-10,16.5
		s-10.3,12.9-14.9,17.5c-5,5-10.1,10.3-4.4,20.3c5.8,10,25.7,42.4,55.1,68.9c38,33.8,70.1,44.2,79.8,49.4c10,5,15.7,4.2,21.5-2.6
		c5.8-6.8,24.9-29.1,31.4-38.8c6.6-10,13.1-8.4,22.3-5s57.9,27.3,67.9,32.2c9.8,5,16.5,7.4,19.1,11.5
		C604.5,496.2,604.5,516.1,596.1,539.3z"/>
</g>
</svg>
